<?xml version="1.0" standalone="no"?>
<!DOCTYPE svg PUBLIC "-//W3C//DTD SVG 20010904//EN"
 "http://www.w3.org/TR/2001/REC-SVG-20010904/DTD/svg10.dtd">
<svg version="1.0" xmlns="http://www.w3.org/2000/svg"
 width="500.000000pt" height="500.000000pt" viewBox="0 0 500.000000 500.000000"
 preserveAspectRatio="xMidYMid meet">

<g transform="translate(0.000000,500.000000) scale(0.100000,-0.100000)"
fill="#000000" stroke="none">
<path d="M1960 3425 l-535 -535 -67 0 -68 0 0 -69 c0 -39 -5 -73 -10 -76 -6
-4 -10 22 -10 69 l0 76 -70 0 -70 0 -1 -152 -1 -153 -30 153 -31 152 -73 0
-74 0 0 -350 0 -350 70 0 70 0 0 142 c0 80 4 138 9 133 4 -6 18 -62 30 -125
32 -165 22 -150 102 -150 l69 0 0 36 c0 21 4 33 10 29 5 -3 10 -19 10 -36 0
-25 4 -29 27 -29 23 0 122 -95 605 -577 l578 -578 578 578 577 577 98 0 97 0
0 63 1 62 22 -45 c29 -60 72 -83 151 -84 119 -1 169 58 170 199 0 101 -11 122
-121 237 -70 73 -84 92 -81 115 2 22 8 28 28 28 22 0 25 -5 28 -37 l3 -38 71
0 71 0 -6 55 c-7 72 -37 119 -87 139 -110 44 -216 -2 -240 -105 -23 -95 0
-149 111 -265 56 -59 79 -91 84 -117 9 -45 4 -67 -17 -80 -30 -19 -48 8 -48
74 l0 59 -37 0 -36 0 23 25 24 26 -129 129 -130 130 73 0 72 0 0 65 0 65 -138
0 -137 0 -535 535 c-294 294 -537 535 -540 535 -3 0 -246 -241 -540 -535z
m1072 -12 l528 -528 0 -347 0 -347 35 -3 c35 -3 32 -6 -530 -568 l-565 -565
-565 565 c-562 562 -565 565 -530 568 19 2 35 9 35 15 1 7 1 78 0 160 l-1 147
66 0 65 0 0 65 0 65 -65 0 -65 0 0 60 0 60 69 0 70 0 3 -227 c3 -218 4 -230
26 -269 65 -113 235 -107 300 11 15 26 17 65 17 270 0 222 -1 243 -20 274 -11
19 -32 43 -46 54 -30 22 -101 33 -154 23 -45 -9 -102 -58 -114 -100 -8 -27 -9
-23 -10 32 -1 69 4 65 -86 62 l-50 -1 525 525 c289 289 527 526 530 526 3 0
242 -237 532 -527z m-1252 -663 c7 -14 10 -89 8 -220 -3 -210 -9 -237 -46
-214 -15 10 -17 35 -20 219 -2 209 1 235 34 235 7 0 18 -9 24 -20z m-490 -251
c0 -153 -3 -228 -10 -224 -6 4 -10 88 -10 224 0 190 3 231 16 231 2 0 3 -104
4 -231z m2480 176 l54 -55 -55 0 -56 0 -2 55 c-1 30 -1 55 1 55 2 0 28 -25 58
-55z m150 -200 c-13 -14 -34 -25 -47 -25 -17 0 -23 -6 -23 -22 0 -12 -17 -39
-37 -60 -28 -29 -45 -38 -70 -38 l-33 0 0 80 0 80 65 0 65 0 0 57 0 58 52 -52
52 -52 -24 -26z m-68 -120 c5 -22 2 -25 -25 -25 l-30 0 23 25 c13 14 24 25 26
25 1 0 4 -11 6 -25z"/>
<path d="M3280 2878 c-76 -39 -80 -55 -80 -333 0 -230 1 -242 23 -279 30 -55
78 -81 147 -81 72 0 118 26 148 85 22 44 23 51 20 290 -3 235 -4 246 -25 276
-45 63 -153 82 -233 42z m118 -329 c2 -175 0 -218 -12 -228 -20 -17 -43 -3
-50 31 -10 50 -7 365 4 393 7 20 16 26 33 23 22 -3 22 -4 25 -219z"/>
<path d="M2170 2540 l0 -350 70 0 70 0 0 160 0 160 35 0 35 0 0 -160 0 -160
70 0 70 0 0 350 0 350 -70 0 -69 0 -3 -122 -3 -123 -32 -3 -33 -3 0 125 0 126
-70 0 -70 0 0 -350z"/>
<path d="M2540 2540 l0 -350 145 0 145 0 0 70 0 70 -75 0 -76 0 3 78 3 77 68
3 67 3 0 64 0 65 -70 0 -71 0 3 68 3 67 68 3 67 3 0 64 0 65 -140 0 -140 0 0
-350z"/>
<path d="M2840 2540 l0 -350 75 0 75 0 0 160 c0 125 3 160 13 160 32 0 37 -24
37 -172 l0 -148 70 0 70 0 0 145 c0 146 -13 215 -40 215 -7 0 0 14 14 30 59
71 40 267 -30 299 -15 6 -79 11 -154 11 l-130 0 0 -350z m208 173 c4 -50 -11
-83 -38 -83 -18 0 -20 7 -20 66 l0 65 28 -3 c24 -3 27 -8 30 -45z"/>
<path d="M1940 2440 l0 -51 103 3 102 3 3 48 3 47 -105 0 -106 0 0 -50z"/>
<path d="M760 2540 l0 -350 70 0 70 0 0 350 0 350 -70 0 -70 0 0 -350z"/>
</g>
</svg>
